# xmcd CD database file
#
# Track frame offsets:
#	150
#	16995
#	37716
#	56191
#	76674
#	95007
#	115156
#	137281
#	156092
#	178001
#	203972
#	222084
#
# Disc length: 3347 seconds
#
# Revision: 0
# Processed by: cddbd v1.5.2PL0 Copyright (c) Steve Scherf et al.
# Submitted via: CDex 1.70beta2
#
DISCID=940d110c
DTITLE=Térez Montcalm - Voodoo
DYEAR=2006
DGENRE=Jazz
TTITLE0=L.O.V.E.
TTITLE1=Growing Stronger
TTITLE2=Sweet Dreams
TTITLE3=Shattered
TTITLE4=Close Your Eyes
TTITLE5=Parce que y'a toi...
TTITLE6=Voodoo Child
TTITLE7=I Want To Be Around
TTITLE8=For Heaven's Sake
TTITLE9=Sorry Seems To Be The Hardest Word
TTITLE10=How Sweet It Is
TTITLE11=Be Anything But Be Mine
EXTD=YEAR: 2006
EXTT0=
EXTT1=
EXTT2=
EXTT3=
EXTT4=
EXTT5=
EXTT6=
EXTT7=
EXTT8=
EXTT9=
EXTT10=
EXTT11=
PLAYORDER=
